<?xml version="1.0" encoding="UTF-8"?>
<svg width="241px" height="20px" viewBox="0 0 241 20" version="1.1" xmlns="http://www.w3.org/2000/svg" xmlns:xlink="http://www.w3.org/1999/xlink">
    <!-- Generator: Sketch 52.5 (67469) - http://www.bohemiancoding.com/sketch -->
    <title>logo</title>
    <desc>Created with Sketch.</desc>
    <defs>
        <polygon id="path-1" points="0.418132652 0.2903 15.8828282 0.2903 15.8828282 17 0.418132652 17"></polygon>
        <polygon id="path-3" points="0 0.8357 21.2886 0.8357 21.2886 15.7957 0 15.7957"></polygon>
    </defs>
    <g id="首页" stroke="none" stroke-width="1" fill="none" fill-rule="evenodd">
        <g transform="translate(-240.000000, -20.000000)" id="nav">
            <g>
                <g id="logo" transform="translate(240.000000, 20.000000)">
                    <path d="M162.724,4.3804 L162.5,6.2064 C162.482,6.3524 162.374,6.4694 162.231,6.4994 L156.608,7.6894 L156.312,10.1004 L162.424,10.1004 C162.513,10.1004 162.57,10.1944 162.528,10.2734 L161.682,11.8774 C161.62,11.9954 161.496,12.0694 161.363,12.0694 L153.728,12.0694 C152.95,12.0694 152.348,11.3884 152.442,10.6154 L152.701,8.5074 L149.166,9.2464 C149.084,9.2644 149.01,9.1954 149.02,9.1124 L149.249,7.2454 C149.262,7.1404 149.341,7.0544 149.445,7.0314 L152.973,6.2944 L153.32,3.4644 C153.339,3.3114 153.469,3.1964 153.623,3.1964 L157.013,3.1964 C157.091,3.1964 157.151,3.2644 157.142,3.3414 L156.88,5.4744 L162.619,4.2834 C162.678,4.2714 162.731,4.3194 162.724,4.3804 M148.916,19.5074 L149.349,15.9864 L140.546,15.9864 C140.484,15.9864 140.436,15.9324 140.444,15.8714 L140.641,14.2684 C140.659,14.1244 140.78,14.0174 140.924,14.0174 L149.59,14.0174 L149.763,12.6124 C149.785,12.4294 149.941,12.2904 150.126,12.2904 L153.853,12.2904 C153.911,12.2904 153.956,12.3414 153.95,12.3994 L153.751,14.0174 L162.542,14.0174 C162.61,14.0174 162.662,14.0764 162.654,14.1434 L162.459,15.7284 C162.441,15.8754 162.316,15.9864 162.167,15.9864 L153.509,15.9864 L153.108,19.2514 C153.081,19.4724 152.894,19.6384 152.671,19.6384 L149.032,19.6384 C148.962,19.6384 148.908,19.5764 148.916,19.5074 M143.124,12.2534 L143.603,8.3524 L141.313,8.3524 C141.212,8.3524 141.156,8.2344 141.22,8.1554 L145.262,3.2394 C145.318,3.1704 145.403,3.1294 145.492,3.1294 L149.022,3.1294 C149.122,3.1294 149.179,3.2444 149.118,3.3244 L146.791,6.3594 C146.791,6.3594 147.352,6.3644 147.536,6.3604 C147.603,6.3594 147.712,6.4564 147.693,6.5854 C147.655,6.8364 147.016,12.0934 147.016,12.0934 C146.996,12.2574 146.857,12.3794 146.692,12.3794 L143.235,12.3794 C143.168,12.3794 143.116,12.3204 143.124,12.2534" id="Fill-1" fill="#25272C"></path>
                    <path d="M174.328,8.8003 L174.125,10.4513 C174.107,10.5993 173.983,10.7093 173.835,10.7093 L172.19,10.7093 L171.364,17.4363 L172.938,17.4363 C172.985,17.4363 173.02,17.4783 173.012,17.5243 L172.733,19.1783 C172.709,19.3223 172.584,19.4283 172.438,19.4283 L165.033,19.4283 C164.975,19.4283 164.93,19.3773 164.937,19.3193 L165.136,17.6963 C165.154,17.5473 165.28,17.4363 165.429,17.4363 L167.337,17.4363 L168.163,10.7093 L166.354,10.7093 C166.304,10.7093 166.265,10.6643 166.271,10.6143 L166.474,8.9653 C166.491,8.8233 166.611,8.7173 166.754,8.7173 L174.254,8.7173 C174.299,8.7173 174.333,8.7563 174.328,8.8003" id="Fill-3" fill="#25272C"></path>
                    <path d="M177.6146,5.1323 L172.2116,5.1323 L170.6056,7.6773 C170.5616,7.7453 170.4866,7.7873 170.4046,7.7873 L166.4536,7.7873 C166.3826,7.7873 166.3406,7.7083 166.3806,7.6493 L169.2516,3.3683 C169.3276,3.2543 169.4576,3.1853 169.5956,3.1853 L173.4296,3.1853 C173.4416,3.1853 173.4606,3.1993 173.4366,3.2353 C173.3746,3.3253 173.1956,3.6053 173.1956,3.6053 L177.8856,3.6053 C177.9336,3.6053 177.9706,3.6473 177.9646,3.6953 L177.8096,4.9593 C177.7976,5.0583 177.7136,5.1323 177.6146,5.1323" id="Fill-5" fill="#25272C"></path>
                    <path d="M176.3593,7.6773 C176.3303,7.7433 176.2643,7.7873 176.1913,7.7873 L173.1193,7.7873 C173.0183,7.7873 172.9303,7.7193 172.9043,7.6213 L172.3873,5.6293 C172.3743,5.5793 172.4123,5.5303 172.4643,5.5303 L175.8583,5.5303 C175.8823,5.5303 175.8813,5.5383 175.8873,5.5613 C175.8903,5.5723 176.3593,7.6773 176.3593,7.6773" id="Fill-7" fill="#25272C"></path>
                    <path d="M188.3285,5.1323 L182.9255,5.1323 L181.3195,7.6773 C181.2755,7.7453 181.2005,7.7873 181.1195,7.7873 L177.1675,7.7873 C177.0965,7.7873 177.0545,7.7083 177.0945,7.6493 L179.9655,3.3683 C180.0425,3.2543 180.1715,3.1853 180.3095,3.1853 L184.1435,3.1853 C184.1555,3.1853 184.1745,3.1993 184.1505,3.2353 C184.0885,3.3253 183.9095,3.6053 183.9095,3.6053 L188.5995,3.6053 C188.6475,3.6053 188.6845,3.6473 188.6785,3.6953 L188.5235,4.9593 C188.5115,5.0583 188.4275,5.1323 188.3285,5.1323" id="Fill-9" fill="#25272C"></path>
                    <path d="M187.0731,7.6773 C187.0441,7.7433 186.9781,7.7873 186.9051,7.7873 L183.8331,7.7873 C183.7321,7.7873 183.6441,7.7193 183.6181,7.6213 L183.1011,5.6293 C183.0881,5.5793 183.1261,5.5303 183.1781,5.5303 L186.5721,5.5303 C186.5961,5.5303 186.5951,5.5383 186.6011,5.5613 C186.6041,5.5723 187.0731,7.6773 187.0731,7.6773" id="Fill-11" fill="#25272C"></path>
                    <path d="M179.2338,10.8452 L178.2018,19.2502 C178.1748,19.4652 177.9928,19.6262 177.7758,19.6262 L174.2568,19.6262 C174.1738,19.6262 175.5418,9.0112 175.5418,9.0112 C175.5678,8.7922 175.7538,8.6282 175.9738,8.6282 L183.9138,8.6282 C185.7458,8.6282 187.1648,10.2322 186.9418,12.0502 C186.9418,12.0502 186.2348,19.6262 186.0388,19.6262 L182.5668,19.6262 C182.3038,19.6262 182.1008,19.3972 182.1328,19.1352 L183.1688,10.6942 C183.1838,10.5732 183.0888,10.4652 182.9668,10.4652 L179.6628,10.4652 C179.4438,10.4652 179.2598,10.6282 179.2338,10.8452" id="Fill-13" fill="#25272C"></path>
                    <path d="M182.2435,12.4234 L182.1325,17.0084 C182.1285,17.1534 181.9875,17.2704 181.8145,17.2704 L179.2445,17.2704 C179.1985,17.2704 179.1615,17.2374 179.1625,17.1984 L179.2735,12.6324 C179.2775,12.4724 179.4325,12.3444 179.6225,12.3444 L182.1505,12.3444 C182.2025,12.3444 182.2445,12.3794 182.2435,12.4234" id="Fill-15" fill="#25272C"></path>
                    <path d="M194.3383,19.6382 L195.6673,8.8172 L192.9453,8.8172 C192.8753,8.8172 192.8193,8.7552 192.8283,8.6852 L193.0073,7.2232 C193.0323,7.0212 193.2043,6.8692 193.4063,6.8692 L195.9063,6.8692 L196.1023,5.2762 L193.5253,5.2762 C193.4123,5.2762 193.3253,5.1772 193.3383,5.0662 L193.4913,3.8252 C193.5163,3.6172 193.6923,3.4612 193.9013,3.4612 L202.7133,3.4612 C202.8363,3.4612 202.9083,3.6012 202.8373,3.7022 L201.8573,5.0862 C201.7733,5.2052 201.6363,5.2762 201.4903,5.2762 L199.9963,5.2762 L199.8003,6.8692 L202.5273,6.8692 C202.6073,6.8692 202.6693,6.9402 202.6593,7.0192 L202.4833,8.4592 C202.4573,8.6632 202.2843,8.8172 202.0783,8.8172 L199.5613,8.8172 L198.2333,19.6382 L194.3383,19.6382 Z" id="Fill-17" fill="#25272C"></path>
                    <path d="M191.5785,19.4009 L192.7685,9.7109 C192.7815,9.6049 192.8715,9.5249 192.9785,9.5249 L194.6325,9.5249 C194.7595,9.5249 194.8585,9.6359 194.8425,9.7619 L193.6535,19.4519 C193.6405,19.5579 193.5495,19.6379 193.4425,19.6379 L191.7885,19.6379 C191.6615,19.6379 191.5635,19.5269 191.5785,19.4009" id="Fill-19" fill="#25272C"></path>
                    <path d="M198.9906,19.4155 L200.1836,9.6985 C200.1966,9.5995 200.2806,9.5245 200.3806,9.5245 L202.0386,9.5245 C202.1576,9.5245 202.2506,9.6295 202.2356,9.7475 L201.0426,19.4645 C201.0306,19.5625 200.9466,19.6385 200.8456,19.6385 L199.1876,19.6385 C199.0686,19.6385 198.9766,19.5335 198.9906,19.4155" id="Fill-21" fill="#25272C"></path>
                    <path d="M205.5502,8.1782 L203.7052,4.3542 C203.6442,4.2272 203.7372,4.0802 203.8772,4.0802 L207.1042,4.0802 C207.1782,4.0802 207.2452,4.1222 207.2772,4.1892 L209.0962,8.0142 C209.1552,8.1402 209.0642,8.2862 208.9242,8.2862 L205.7212,8.2862 C205.6492,8.2862 205.5822,8.2442 205.5502,8.1782" id="Fill-23" fill="#25272C"></path>
                    <path d="M205.0365,13.2691 L203.1915,9.4181 C203.1315,9.2931 203.2225,9.1481 203.3615,9.1481 L206.5975,9.1481 C206.6685,9.1481 206.7335,9.1881 206.7655,9.2511 L208.7145,13.1021 C208.7775,13.2281 208.6865,13.3761 208.5465,13.3761 L205.2065,13.3761 C205.1335,13.3761 205.0675,13.3341 205.0365,13.2691" id="Fill-25" fill="#25272C"></path>
                    <path d="M208.0184,19.4263 L208.3964,16.3413 L202.5414,16.3413 C202.4774,16.3413 202.4284,16.2853 202.4364,16.2223 L202.6384,14.5813 C202.6594,14.4103 202.8044,14.2823 202.9764,14.2823 L208.6494,14.2823 L209.9784,3.4623 C209.9984,3.2973 210.1384,3.1743 210.3044,3.1743 L213.8944,3.1743 C213.9964,3.1743 214.0744,3.2633 214.0624,3.3633 L212.7224,14.2823 L214.0694,14.2823 C214.1294,14.2823 214.1764,14.3353 214.1694,14.3953 L213.9744,15.9833 C213.9484,16.1883 213.7744,16.3413 213.5694,16.3413 L212.4694,16.3413 L212.1004,19.3453 C212.0794,19.5123 211.9374,19.6383 211.7684,19.6383 L208.2064,19.6383 C208.0924,19.6383 208.0044,19.5383 208.0184,19.4263" id="Fill-27" fill="#25272C"></path>
                    <path d="M226.3217,5.1528 L226.0997,6.9628 C226.0877,7.0638 226.0017,7.1408 225.8977,7.1408 L225.3847,7.1408 C225.2047,7.1408 225.2047,7.1408 225.1827,7.3188 L224.8357,9.9738 C224.8287,10.0338 224.8447,10.0678 224.9177,10.0538 L225.1347,9.9968 C225.2707,9.9658 225.5057,10.0398 225.4867,10.2728 L225.2637,12.2398 C225.2537,12.3228 225.1947,12.3898 225.1147,12.4118 L224.6897,12.5618 C224.5477,12.6068 224.5287,12.6138 224.5127,12.7738 L223.9557,17.3168 C223.7727,18.8048 222.5087,19.9228 221.0107,19.9228 L217.5377,19.9228 C217.4117,19.9228 217.3167,19.8068 217.3417,19.6828 L217.6197,17.9418 C217.6377,17.8398 217.7267,17.7648 217.8307,17.7648 L219.0287,17.6438 C219.4157,17.6048 219.7907,17.3358 219.8417,16.9248 L220.3527,13.3348 L218.4497,13.7408 C218.3787,13.7558 218.3127,13.6968 218.3207,13.6238 L218.5327,11.7238 C218.5547,11.5218 218.7037,11.3568 218.9017,11.3138 L220.6257,10.9328 L221.0807,7.1408 L219.1497,7.1408 C219.1157,7.1408 219.0897,7.1108 219.0937,7.0778 L219.3347,5.1178 C219.3407,5.0698 219.3817,5.0338 219.4287,5.0338 L221.3397,5.0338 L221.5627,3.2138 C221.5687,3.1658 221.6087,3.1298 221.6577,3.1298 L225.5897,3.1298 C225.6467,3.1298 225.6917,3.1798 225.6837,3.2368 L225.4917,4.8058 C225.4697,4.9718 225.4787,5.0338 225.6937,5.0338 L226.2237,5.0348 C226.3247,5.0368 226.3367,5.0458 226.3217,5.1528" id="Fill-29" fill="#25272C"></path>
                    <g id="分组" transform="translate(225.000000, 3.028000)">
                        <mask id="mask-2" fill="white">
                            <use xlink:href="#path-1"></use>
                        </mask>
                        <g id="Clip-32"></g>
                        <path d="M15.141,6.8143 C14.404,9.0723 12.742,11.2343 10.407,13.0263 C11.498,13.5623 12.729,13.9963 14.051,14.3153 C14.251,14.3643 14.268,14.4163 14.248,14.5883 C14.187,15.1283 14.015,16.4883 13.965,16.8973 C13.956,16.9633 13.895,17.0073 13.829,16.9993 C11.427,16.6583 9.283,15.9603 7.49,14.9643 C7.425,14.9283 7.35,14.9263 7.284,14.9603 C5.281,15.9503 3.022,16.6483 0.574,16.9923 C0.487,17.0033 0.409,16.9283 0.419,16.8403 L0.712,14.4603 C0.719,14.4023 0.762,14.3563 0.82,14.3443 C2.247,14.0493 3.584,13.6033 4.783,13.0483 C3.551,11.9373 2.62,10.6853 2.076,9.3493 C2.029,9.2343 2.119,9.1063 2.244,9.1063 L4.96,9.1063 C5.764,9.1003 5.856,9.2043 6.155,9.5953 C6.536,10.0923 6.963,10.6263 7.515,11.1073 C7.631,11.2083 7.812,11.2103 7.932,11.1153 C8.911,10.3353 9.703,9.5093 10.253,8.6963 C10.305,8.6203 10.245,8.5163 10.154,8.5163 L1.64,8.5163 C1.581,8.5163 1.538,8.4663 1.546,8.4093 L1.755,6.7043 C1.771,6.5753 1.881,6.4773 2.012,6.4773 L6.338,6.4773 L6.619,4.1883 L1.63,4.1883 C1.572,4.1883 1.526,4.1363 1.534,4.0793 L1.75,2.3073 C1.767,2.1773 1.876,2.0813 2.007,2.0813 L6.877,2.0813 L7.07,0.5163 C7.085,0.3873 7.196,0.2903 7.327,0.2903 L10.726,0.2903 C10.881,0.2903 11.001,0.4253 10.983,0.5803 L10.798,2.0813 L15.774,2.0813 C15.839,2.0813 15.89,2.1383 15.882,2.2033 L15.666,3.9613 C15.651,4.0903 15.54,4.1883 15.41,4.1883 L10.539,4.1883 L10.258,6.4773 L14.891,6.4773 C15.066,6.4773 15.196,6.6483 15.141,6.8143" id="Fill-31" fill="#25272C" mask="url(#mask-2)"></path>
                    </g>
                    <path d="M131.6474,11.3433 C131.3944,13.4013 130.0774,15.1623 127.6974,16.6253 C125.3134,18.0913 122.5824,18.8233 119.5044,18.8233 C116.4254,18.8233 113.8764,18.0913 111.8574,16.6253 C109.8334,15.1623 108.9524,13.4013 109.2064,11.3433 L110.1294,3.8643 L117.9834,3.8643 L117.0564,11.3803 C116.8904,12.7163 116.9104,13.7193 117.1144,14.3923 C117.4794,15.6003 118.3794,16.2063 119.8264,16.2063 C121.2734,16.2063 122.3234,15.6003 122.9864,14.3923 C123.3584,13.7193 123.6244,12.7163 123.7884,11.3803 L124.7154,3.8643 L132.5714,3.8643 L131.6474,11.3433 Z" id="Fill-33" fill="#55A694"></path>
                    <polygon id="Fill-35" fill="#EF8200" points="99.996 8.2593 101.001 0.1043 113.442 0.1043"></polygon>
                    <polygon id="Fill-37" fill="#55A694" points="105.7016 18.8237 98.6876 18.8237 99.4506 12.6527 93.8396 12.6527 93.0776 18.8237 86.0656 18.8237 87.9116 3.8637 94.9246 3.8637 94.1616 10.0347 99.7736 10.0347 107.3236 5.6897"></polygon>
                    <path d="M86.6664,18.8237 L72.2624,18.8237 C70.6284,18.8237 69.3284,18.3647 68.3544,17.4597 C67.4404,16.6087 67.0464,15.6337 67.1834,14.5217 C67.2924,13.6367 67.7704,12.8467 68.6184,12.1477 C69.2424,11.6257 70.2394,11.0447 71.5994,10.4087 L76.5024,8.1087 C77.0184,7.8737 77.2934,7.6137 77.3284,7.3427 C77.3544,7.1177 77.2734,6.9187 77.0834,6.7427 C76.8924,6.5677 76.6364,6.4817 76.3104,6.4817 L64.5514,6.4817 L63.2214,3.8637 L79.7204,3.8637 C81.4024,3.8637 82.7184,4.3397 83.6774,5.2847 C84.5524,6.1477 84.9234,7.1547 84.7814,8.3137 C84.6844,9.0997 84.4034,9.7617 83.9384,10.2967 C83.4724,10.8317 82.7354,11.3357 81.7304,11.8107 C80.3524,12.3717 78.3254,13.2437 75.6474,14.4287 C75.0104,14.7397 74.6754,15.0357 74.6414,15.3077 C74.6154,15.5327 74.6934,15.7377 74.8834,15.9257 C75.0734,16.1127 75.3354,16.2067 75.6714,16.2067 L86.9904,16.2067 L86.6664,18.8237 Z" id="Fill-39" fill="#55A694"></path>
                    <path d="M66.8768,18.8237 L59.3058,18.8237 L51.1148,18.8237 L53.0628,16.2067 L58.2418,16.2067 L55.1278,8.4077 L48.1548,18.8237 L44.4348,18.8237 L52.7778,5.9397 C53.1768,5.3297 53.8078,4.8287 54.6708,4.4437 C55.5368,4.0577 56.4618,3.8637 57.4458,3.8637 C58.4068,3.8637 59.2918,4.0507 60.1068,4.4247 C60.9208,4.7977 61.4498,5.2767 61.6888,5.8637 L66.8768,18.8237 Z" id="Fill-41" fill="#55A694"></path>
                    <path d="M45.5819,11.3433 C45.3289,13.4013 44.0109,15.1623 41.6319,16.6253 C39.2479,18.0913 36.5169,18.8233 33.4379,18.8233 C30.3599,18.8233 27.8099,18.0913 25.7909,16.6253 C23.7699,15.1623 22.8859,13.4013 23.1409,11.3433 L24.0639,3.8643 L31.9179,3.8643 L30.9909,11.3803 C30.8259,12.7163 30.8439,13.7193 31.0489,14.3923 C31.4129,15.6003 32.3139,16.2063 33.7609,16.2063 C35.2079,16.2063 36.2589,15.6003 36.9209,14.3923 C37.2929,13.7193 37.5579,12.7163 37.7229,11.3803 L38.6499,3.8643 L46.5059,3.8643 L45.5819,11.3433 Z" id="Fill-43" fill="#55A694"></path>
                    <g id="分组" transform="translate(0.000000, 3.028000)">
                        <mask id="mask-4" fill="white">
                            <use xlink:href="#path-3"></use>
                        </mask>
                        <g id="Clip-46"></g>
                        <polygon id="Fill-45" fill="#55A694" mask="url(#mask-4)" points="19.6356 15.7957 12.6246 15.7957 13.3846 9.6247 7.7746 9.6247 7.0126 15.7957 -0.0004 15.7957 1.8466 0.8357 8.8596 0.8357 8.0966 7.0067 13.7066 7.0067 21.2886 2.4077"></polygon>
                    </g>
                    <polygon id="Fill-47" fill="#EF8200" points="13.9682 8.1558 14.9752 0.0008 27.4162 0.0008"></polygon>
                </g>
            </g>
        </g>
    </g>
</svg>